<?xml version="1.0" encoding="UTF-8" standalone="no"?>
<!-- Uploaded to: SVG Repo, www.svgrepo.com, Generator: SVG Repo Mixer Tools -->

<svg
   width="16"
   height="16"
   viewBox="0 0 0.64 0.64"
   enable-background="new 0 0 32 32"
   id="Layer_1"
   version="1.1"
   xml:space="preserve"
   sodipodi:docname="crew-brief.svg"
   inkscape:version="1.4.2 (ebf0e94, 2025-05-08)"
   xmlns:inkscape="http://www.inkscape.org/namespaces/inkscape"
   xmlns:sodipodi="http://sodipodi.sourceforge.net/DTD/sodipodi-0.dtd"
   xmlns="http://www.w3.org/2000/svg"
   xmlns:svg="http://www.w3.org/2000/svg"><defs
   id="defs50">



































































































































































































































</defs><sodipodi:namedview
   id="namedview50"
   pagecolor="#505050"
   bordercolor="#eeeeee"
   borderopacity="1"
   inkscape:showpageshadow="0"
   inkscape:pageopacity="0"
   inkscape:pagecheckerboard="0"
   inkscape:deskcolor="#505050"
   inkscape:zoom="36.460193"
   inkscape:cx="7.5836132"
   inkscape:cy="8.9001175"
   inkscape:window-width="1920"
   inkscape:window-height="1027"
   inkscape:window-x="-8"
   inkscape:window-y="-8"
   inkscape:window-maximized="1"
   inkscape:current-layer="Layer_1"
   showgrid="false" />

<rect
   style="fill:#c9cfd3;fill-opacity:1;stroke-width:0.101361"
   id="rect1"
   width="0.63999999"
   height="0.63999999"
   x="0"
   y="0" /><path
   d="m 0.24501708,0.83802424 c -0.0129933,0 -0.0235329,-0.0105472 -0.0235329,-0.023533 V 0.53211667 c 0,-0.0129933 0.0105472,-0.023533 0.0235329,-0.023533 0.0129934,0 0.023533,0.0105472 0.023533,0.023533 v 0.2823745 c 0,0.0129919 -0.0105472,0.023533 -0.023533,0.0235331 z"
   fill="#263238"
   id="path34"
   style="fill:#192a31;fill-opacity:1;stroke-width:0.0470625" /><path
   d="m 0.52739163,0.83802424 c -0.0129933,0 -0.0235329,-0.0105472 -0.0235329,-0.023533 V 0.29680647 c 0,-0.0129934 0.0105472,-0.023533 0.0235329,-0.023533 0.0129933,0 0.023533,-0.0105891 0.023533,-0.023533 v -0.32943349 c -7.5e-7,-0.05294497 -0.0434396,-0.11765604 -0.0941258,-0.11765604 H 0.26855014 c -0.0506863,0 -0.0970909,0.0652285 -0.0994909,0.11864359 l -0.0181566,0.37664062 c -6.1173e-4,0.0129494 -0.0125087,0.0234379 -0.0246131,0.0223553 -0.0129933,-6.1174e-4 -0.0230155,-0.0116226 -0.0224002,-0.0246131 l 0.0182228,-0.37659363 c 0.00342,-0.07713465 0.0668565,-0.16349486 0.14643977,-0.16349486 h 0.18824886 c 0.0794882,0 0.1411873,0.0885705 0.1411873,0.1647193 v 0.32943687 c 0,0.0306837 -0.0196775,0.0568523 -0.0470614,0.0665453 v 0.49820353 c 0,0.0129919 -0.0105472,0.0235303 -0.0235351,0.0235304 z"
   fill="#263238"
   id="path37"
   style="fill:#192a31;fill-opacity:1;stroke-width:0.0470625" /><path
   d="M 0.38620435,0.81449294 V 0.39093115 Z"
   fill="#263238"
   id="path40"
   style="fill:#192a31;fill-opacity:1;stroke-width:0.0470625" /><path
   d="m 0.38620435,0.83802424 c -0.0129933,0 -0.0235329,-0.0105472 -0.0235329,-0.023533 V 0.39093048 c 0,-0.0129933 0.0105472,-0.023533 0.0235329,-0.023533 0.0129933,0 0.023533,0.0105472 0.023533,0.023533 v 0.42356183 c 0,0.0129919 -0.0105472,0.023533 -0.023533,0.0235319 z"
   fill="#263238"
   id="path42"
   style="fill:#192a31;fill-opacity:1;stroke-width:0.0470625" /><g
   id="g46"
   style="fill:#263238;fill-opacity:1"
   transform="matrix(0.11868439,0,0,0.11868439,-1.3510313,-2.0614301)">

<path
   d="m 14.615332,21.322389 h -2.146329 c -0.394209,0 -0.715443,-0.320518 -0.715443,-0.715443 V 19.17606 c 0,-0.394925 0.321234,-0.715443 0.715443,-0.715443 h 2.146329 c 0.39421,0 0.715444,0.320518 0.715444,0.715443 v 1.430886 c 0,0.394925 -0.321234,0.715443 -0.715444,0.715443 z m 0,-0.715443 v 0.357722 z M 12.469003,19.17606 v 1.430886 h 2.145614 l 7.15e-4,-1.430886 z"
   fill="#263238"
   id="path45"
   style="fill:#192a31;fill-opacity:1;stroke-width:0.715443" />

</g><rect
   style="fill:#b18b68;fill-opacity:1;stroke-width:0.0754832"
   id="rect2"
   width="0.34987924"
   height="0.22980236"
   x="0.081273034"
   y="0.18447962"
   rx="0.037866142"
   ry="0.037866142" />

</svg>
